<?xml version="1.0" standalone="no"?>
<!DOCTYPE svg PUBLIC "-//W3C//DTD SVG 20010904//EN"
 "http://www.w3.org/TR/2001/REC-SVG-20010904/DTD/svg10.dtd">
<svg version="1.0" xmlns="http://www.w3.org/2000/svg"
 width="1563.000000pt" height="1563.000000pt" viewBox="0 0 1563.000000 1563.000000"
 preserveAspectRatio="xMidYMid meet">

<g transform="translate(0.000000,1563.000000) scale(0.100000,-0.100000)"
fill="#000000" stroke="none">
<path d="M6136 10233 c-11 -11 -46 -94 -46 -108 0 -7 -6 -17 -12 -23 -14 -11
-268 -26 -1013 -60 -123 -6 -150 -10 -153 -22 -1 -9 5 -16 15 -17 279 -22 930
-67 1118 -78 138 -8 297 -19 355 -24 58 -6 197 -15 310 -21 252 -14 290 -18
290 -33 0 -7 -13 -37 -28 -67 l-29 -55 -634 -1 c-349 0 -794 -5 -989 -12 -406
-13 -974 -33 -1070 -37 -36 -2 -77 -3 -92 -4 -34 -1 -39 -31 -5 -31 62 -1 622
-33 877 -50 80 -6 325 -19 545 -30 220 -11 483 -25 585 -30 102 -5 249 -10
327 -10 78 0 148 -3 156 -6 14 -5 14 -10 1 -47 -8 -22 -25 -55 -39 -73 l-25
-32 -437 0 c-420 0 -926 -11 -1418 -32 -126 -5 -389 -15 -582 -22 -273 -9
-353 -14 -353 -24 0 -17 35 -22 205 -29 77 -3 210 -10 295 -15 651 -41 1250
-69 2047 -93 57 -2 105 -6 108 -9 3 -3 -9 -36 -27 -74 l-33 -69 -85 -2 c-363
-8 -1616 -75 -1627 -87 -3 -3 -3 -12 0 -21 5 -12 23 -15 79 -15 40 0 120 -4
178 -9 143 -13 350 -29 560 -42 284 -17 380 -27 394 -38 9 -8 546 -10 1847 -9
l1834 3 0 715 c0 393 -4 723 -7 733 -7 16 -98 17 -1711 17 -937 0 -1707 -3
-1711 -7z m14 -123 c0 -5 -9 -10 -21 -10 -11 0 -17 5 -14 10 3 6 13 10 21 10
8 0 14 -4 14 -10z"/>
<path d="M9636 9873 c-10 -75 2 -140 28 -147 36 -10 521 -7 511 3 -9 8 -132
55 -340 131 -66 24 -178 60 -186 60 -4 0 -9 -21 -13 -47z"/>
<path d="M9639 9665 c0 0 -3 -216 -5 -479 -3 -264 -7 -482 -10 -485 -3 -4
-558 -4 -1234 -2 -807 2 -1230 0 -1234 -7 -3 -5 8 -27 25 -48 53 -67 72 -116
97 -249 l8 -40 1144 -2 c630 -1 1193 1 1251 4 l106 6 6 73 c11 141 91 256 225
321 75 37 80 38 187 38 106 0 113 -1 185 -36 139 -67 231 -190 238 -321 2 -38
10 -72 17 -78 8 -7 88 -9 226 -8 l214 3 0 165 0 165 -33 3 c-18 2 -36 10 -39
18 -3 8 -6 79 -7 157 -4 246 -2 233 -33 245 -74 27 -412 132 -443 137 -57 9
-96 39 -128 102 -17 32 -61 117 -99 188 l-68 130 -297 0 c-164 0 -298 0 -299
0z m499 -182 c10 -16 40 -71 67 -123 26 -52 51 -99 56 -104 5 -6 9 -20 9 -33
l0 -23 -240 0 -240 0 -2 108 c-1 103 -1 147 1 185 1 15 16 17 165 17 l165 0
19 -27z"/>
<path d="M6760 8697 c-133 -38 -227 -152 -237 -292 -8 -105 13 -162 91 -241
80 -81 149 -108 252 -101 88 6 152 36 211 96 99 101 124 240 65 358 -43 84
-83 127 -148 159 -65 32 -165 41 -234 21z m148 -171 c114 -59 126 -204 22
-273 -24 -17 -48 -23 -85 -23 -44 0 -57 5 -92 35 -64 55 -76 120 -37 197 18
35 90 78 132 78 18 0 45 -6 60 -14z"/>
<path d="M10121 8696 c-60 -20 -144 -79 -175 -124 -43 -63 -59 -124 -54 -210
7 -123 66 -212 175 -268 51 -25 68 -29 143 -29 66 1 96 6 135 23 204 92 253
364 95 519 -86 85 -219 121 -319 89z m184 -187 c67 -59 82 -126 45 -198 -39
-78 -135 -107 -215 -65 -103 54 -106 203 -5 271 24 17 48 23 86 23 46 0 59 -5
89 -31z"/>
<path d="M5838 8689 c-10 -5 -18 -16 -18 -23 0 -7 -11 -34 -24 -62 -13 -27
-30 -65 -39 -84 -8 -19 -27 -61 -41 -94 -14 -32 -23 -62 -20 -67 3 -5 162 -9
359 -9 271 0 356 3 361 12 5 7 10 33 12 58 6 76 32 147 73 202 44 59 45 63 23
72 -28 11 -668 6 -686 -5z"/>
<path d="M4286 7709 c-94 -13 -236 -62 -326 -112 -97 -54 -233 -187 -288 -282
-135 -231 -148 -553 -32 -787 91 -182 237 -319 421 -394 293 -119 672 -83 960
91 l59 36 0 330 0 329 -167 -2 -168 -3 -3 -237 -2 -237 -57 -21 c-109 -41
-245 -52 -355 -29 -182 38 -336 188 -378 369 -20 83 -15 223 9 301 50 161 179
280 348 324 74 19 223 19 298 0 74 -20 163 -67 219 -117 24 -21 47 -38 51 -38
4 0 59 48 122 108 l115 107 -68 63 c-82 77 -227 151 -354 182 -99 24 -300 34
-404 19z"/>
<path d="M6058 7710 c-234 -37 -442 -154 -565 -316 -109 -145 -164 -307 -164
-489 -1 -238 65 -415 214 -572 171 -180 383 -266 657 -266 150 0 233 15 358
63 185 71 348 220 432 394 63 131 85 228 84 376 -2 207 -62 371 -192 527 -95
113 -268 218 -429 259 -110 28 -297 39 -395 24z m271 -321 c165 -38 311 -183
356 -354 33 -129 11 -307 -51 -412 -95 -158 -246 -243 -434 -243 -220 0 -401
125 -470 326 -27 77 -36 202 -21 290 32 184 173 341 350 390 56 15 210 17 270
3z"/>
<path d="M7360 6890 l0 -801 508 4 c478 3 512 5 588 25 122 32 191 68 260 137
96 95 130 218 100 364 -27 127 -96 215 -215 276 l-65 32 29 16 c17 8 49 35 72
59 84 87 122 211 103 334 -26 160 -134 266 -332 326 -70 21 -92 22 -560 26
l-488 3 0 -801z m915 489 c70 -36 95 -76 95 -154 0 -78 -26 -120 -93 -154 -61
-30 -151 -40 -374 -40 l-173 -1 0 191 0 190 248 -3 c243 -3 249 -3 297 -29z
m26 -628 c51 -16 99 -50 126 -90 32 -48 32 -144 1 -191 -60 -87 -115 -100
-445 -100 l-253 0 0 201 0 201 268 -5 c151 -3 283 -10 303 -16z"/>
<path d="M9110 6890 l0 -800 185 0 185 0 0 206 0 207 102 103 c56 57 105 104
109 104 5 0 122 -139 260 -310 l253 -310 214 0 c168 0 212 3 206 13 -4 6 -160
205 -347 440 -186 235 -337 432 -335 437 7 21 643 699 649 692 4 -4 142 -232
308 -508 l301 -500 0 -287 0 -287 185 0 185 0 0 283 0 283 310 514 309 515
-176 3 c-133 2 -180 -1 -189 -10 -6 -7 -102 -165 -213 -350 -111 -186 -205
-338 -209 -338 -4 0 -102 158 -217 350 l-210 350 -396 0 -396 0 -349 -369
-349 -368 -3 368 -2 369 -185 0 -185 0 0 -800z"/>
<path d="M11543 5713 c20 -2 54 -2 75 0 20 2 3 4 -38 4 -41 0 -58 -2 -37 -4z"/>
</g>
</svg>
